<svg width="251" height="48" viewBox="0 0 251 48" fill="none" xmlns="http://www.w3.org/2000/svg">
<g clip-path="url(#clip0_40_219)">
<path d="M25.9489 0.628418V4.55309C35.8016 5.53837 43.4907 13.9079 43.4907 24.0873C43.4907 34.265 35.8016 42.6339 25.9489 43.6192V47.5462C37.9539 46.5481 47.3891 36.4338 47.3891 24.0873C47.3891 11.7391 37.9539 1.62894 25.9489 0.628418Z" fill="#3D55CC"/>
<path d="M22.0511 43.6192C12.2025 42.6339 4.50929 34.265 4.50929 24.0873C4.50929 13.9085 12.2025 5.53837 22.0511 4.55309V0.628418C10.0484 1.62894 0.610909 11.7391 0.610909 24.0873C0.610909 36.4338 10.0484 46.5481 22.0511 47.5462V43.6192Z" fill="#3D55CC"/>
<path d="M12.4809 22.1325C13.4094 16.5862 18.2059 12.3578 24 12.3578C29.7941 12.3578 34.5906 16.5862 35.5191 22.1325H39.4573C38.4983 14.4198 31.9529 8.44775 24 8.44775C16.0512 8.44775 9.50344 14.4198 8.54215 22.1325H12.4809Z" fill="#3D55CC"/>
<path d="M35.5191 26.042C34.5906 31.5859 29.7941 35.8167 24 35.8167C18.2059 35.8167 13.4094 31.5859 12.4809 26.042H8.54273C9.50344 33.7547 16.0512 39.7267 24 39.7267C31.9529 39.7267 38.4983 33.7547 39.4578 26.042H35.5191Z" fill="#3D55CC"/>
<path d="M24 16.2678C19.6947 16.2678 16.2038 19.7691 16.2038 24.0873C16.2038 28.4055 19.6947 31.9067 24 31.9067C28.3071 31.9067 31.7962 28.4055 31.7962 24.0873C31.7962 19.7691 28.3071 16.2678 24 16.2678ZM24 27.9973C21.847 27.9973 20.1016 26.2467 20.1016 24.0873C20.1016 21.9279 21.847 20.1773 24 20.1773C26.1547 20.1773 27.8984 21.9279 27.8984 24.0873C27.8984 26.2467 26.1547 27.9973 24 27.9973Z" fill="#3D55CC"/>
</g>
<path d="M88.672 15.152L84.28 32H79.312L76.624 20.912L73.84 32H68.872L64.6 15.152H68.992L71.416 27.416L74.416 15.152H78.928L81.808 27.416L84.256 15.152H88.672ZM89.9142 25.28C89.9142 23.904 90.1702 22.696 90.6822 21.656C91.2102 20.616 91.9222 19.816 92.8182 19.256C93.7142 18.696 94.7142 18.416 95.8182 18.416C96.7622 18.416 97.5862 18.608 98.2902 18.992C99.0102 19.376 99.5622 19.88 99.9462 20.504V18.608H104.05V32H99.9462V30.104C99.5462 30.728 98.9862 31.232 98.2662 31.616C97.5622 32 96.7382 32.192 95.7942 32.192C94.7062 32.192 93.7142 31.912 92.8182 31.352C91.9222 30.776 91.2102 29.968 90.6822 28.928C90.1702 27.872 89.9142 26.656 89.9142 25.28ZM99.9462 25.304C99.9462 24.28 99.6582 23.472 99.0822 22.88C98.5222 22.288 97.8342 21.992 97.0182 21.992C96.2022 21.992 95.5062 22.288 94.9302 22.88C94.3702 23.456 94.0902 24.256 94.0902 25.28C94.0902 26.304 94.3702 27.12 94.9302 27.728C95.5062 28.32 96.2022 28.616 97.0182 28.616C97.8342 28.616 98.5222 28.32 99.0822 27.728C99.6582 27.136 99.9462 26.328 99.9462 25.304ZM115.179 18.464C116.747 18.464 117.995 18.976 118.923 20C119.867 21.008 120.339 22.4 120.339 24.176V32H116.259V24.728C116.259 23.832 116.027 23.136 115.563 22.64C115.099 22.144 114.475 21.896 113.691 21.896C112.907 21.896 112.283 22.144 111.819 22.64C111.355 23.136 111.123 23.832 111.123 24.728V32H107.019V18.608H111.123V20.384C111.539 19.792 112.099 19.328 112.803 18.992C113.507 18.64 114.299 18.464 115.179 18.464ZM122.375 25.28C122.375 23.904 122.631 22.696 123.143 21.656C123.671 20.616 124.383 19.816 125.279 19.256C126.175 18.696 127.175 18.416 128.279 18.416C129.159 18.416 129.959 18.6 130.679 18.968C131.415 19.336 131.991 19.832 132.407 20.456V14.24H136.511V32H132.407V30.08C132.023 30.72 131.471 31.232 130.751 31.616C130.047 32 129.223 32.192 128.279 32.192C127.175 32.192 126.175 31.912 125.279 31.352C124.383 30.776 123.671 29.968 123.143 28.928C122.631 27.872 122.375 26.656 122.375 25.28ZM132.407 25.304C132.407 24.28 132.119 23.472 131.543 22.88C130.983 22.288 130.295 21.992 129.479 21.992C128.663 21.992 127.967 22.288 127.391 22.88C126.831 23.456 126.551 24.256 126.551 25.28C126.551 26.304 126.831 27.12 127.391 27.728C127.967 28.32 128.663 28.616 129.479 28.616C130.295 28.616 130.983 28.32 131.543 27.728C132.119 27.136 132.407 26.328 132.407 25.304ZM152.104 25.088C152.104 25.472 152.08 25.872 152.032 26.288H142.744C142.808 27.12 143.072 27.76 143.536 28.208C144.016 28.64 144.6 28.856 145.288 28.856C146.312 28.856 147.024 28.424 147.424 27.56H151.792C151.568 28.44 151.16 29.232 150.568 29.936C149.992 30.64 149.264 31.192 148.384 31.592C147.504 31.992 146.52 32.192 145.432 32.192C144.12 32.192 142.952 31.912 141.928 31.352C140.904 30.792 140.104 29.992 139.528 28.952C138.952 27.912 138.664 26.696 138.664 25.304C138.664 23.912 138.944 22.696 139.504 21.656C140.08 20.616 140.88 19.816 141.904 19.256C142.928 18.696 144.104 18.416 145.432 18.416C146.728 18.416 147.88 18.688 148.888 19.232C149.896 19.776 150.68 20.552 151.24 21.56C151.816 22.568 152.104 23.744 152.104 25.088ZM147.904 24.008C147.904 23.304 147.664 22.744 147.184 22.328C146.704 21.912 146.104 21.704 145.384 21.704C144.696 21.704 144.112 21.904 143.632 22.304C143.168 22.704 142.88 23.272 142.768 24.008H147.904ZM158.373 20.84C158.853 20.104 159.453 19.528 160.173 19.112C160.893 18.68 161.693 18.464 162.573 18.464V22.808H161.445C160.421 22.808 159.653 23.032 159.141 23.48C158.629 23.912 158.373 24.68 158.373 25.784V32H154.269V18.608H158.373V20.84ZM192.805 15.152L188.413 32H183.445L180.757 20.912L177.973 32H173.005L168.733 15.152H173.125L175.549 27.416L178.549 15.152H183.061L185.941 27.416L188.389 15.152H192.805ZM194.047 25.28C194.047 23.904 194.303 22.696 194.815 21.656C195.343 20.616 196.055 19.816 196.951 19.256C197.847 18.696 198.847 18.416 199.951 18.416C200.895 18.416 201.719 18.608 202.423 18.992C203.143 19.376 203.695 19.88 204.079 20.504V18.608H208.183V32H204.079V30.104C203.679 30.728 203.119 31.232 202.399 31.616C201.695 32 200.871 32.192 199.927 32.192C198.839 32.192 197.847 31.912 196.951 31.352C196.055 30.776 195.343 29.968 194.815 28.928C194.303 27.872 194.047 26.656 194.047 25.28ZM204.079 25.304C204.079 24.28 203.791 23.472 203.215 22.88C202.655 22.288 201.967 21.992 201.151 21.992C200.335 21.992 199.639 22.288 199.063 22.88C198.503 23.456 198.223 24.256 198.223 25.28C198.223 26.304 198.503 27.12 199.063 27.728C199.639 28.32 200.335 28.616 201.151 28.616C201.967 28.616 202.655 28.32 203.215 27.728C203.791 27.136 204.079 26.328 204.079 25.304ZM218.616 28.52V32H216.528C215.04 32 213.88 31.64 213.048 30.92C212.216 30.184 211.8 28.992 211.8 27.344V22.016H210.168V18.608H211.8V15.344H215.904V18.608H218.592V22.016H215.904V27.392C215.904 27.792 216 28.08 216.192 28.256C216.384 28.432 216.704 28.52 217.152 28.52H218.616ZM220.086 25.304C220.086 23.912 220.366 22.696 220.926 21.656C221.502 20.616 222.294 19.816 223.302 19.256C224.326 18.696 225.494 18.416 226.806 18.416C228.486 18.416 229.886 18.856 231.006 19.736C232.142 20.616 232.886 21.856 233.238 23.456H228.87C228.502 22.432 227.79 21.92 226.734 21.92C225.982 21.92 225.382 22.216 224.934 22.808C224.486 23.384 224.262 24.216 224.262 25.304C224.262 26.392 224.486 27.232 224.934 27.824C225.382 28.4 225.982 28.688 226.734 28.688C227.79 28.688 228.502 28.176 228.87 27.152H233.238C232.886 28.72 232.142 29.952 231.006 30.848C229.87 31.744 228.47 32.192 226.806 32.192C225.494 32.192 224.326 31.912 223.302 31.352C222.294 30.792 221.502 29.992 220.926 28.952C220.366 27.912 220.086 26.696 220.086 25.304ZM243.665 18.464C245.201 18.464 246.433 18.976 247.361 20C248.289 21.008 248.753 22.4 248.753 24.176V32H244.673V24.728C244.673 23.832 244.441 23.136 243.977 22.64C243.513 22.144 242.889 21.896 242.105 21.896C241.321 21.896 240.697 22.144 240.233 22.64C239.769 23.136 239.537 23.832 239.537 24.728V32H235.433V14.24H239.537V20.408C239.953 19.816 240.521 19.344 241.241 18.992C241.961 18.64 242.769 18.464 243.665 18.464Z" fill="#141933"/>
<defs>
<clipPath id="clip0_40_219">
<rect width="48" height="48" fill="white"/>
</clipPath>
</defs>
</svg>
