<svg width="24" height="24" viewBox="0 0 24 24" fill="none" xmlns="http://www.w3.org/2000/svg">
<path d="M9.7606 14.3669C9.1856 13.7929 8.8356 13.0129 8.8356 12.1379C8.8356 10.3849 10.2476 8.97192 11.9996 8.97192C12.8666 8.97192 13.6646 9.32292 14.2296 9.89692" stroke="#878CA8" stroke-width="1.5" stroke-linecap="round" stroke-linejoin="round"/>
<path d="M15.1048 12.699C14.8728 13.989 13.8568 15.007 12.5678 15.241" stroke="#878CA8" stroke-width="1.5" stroke-linecap="round" stroke-linejoin="round"/>
<path d="M6.6546 17.4724C5.0676 16.2264 3.7236 14.4064 2.7496 12.1374C3.7336 9.85841 5.0866 8.02841 6.6836 6.77241C8.2706 5.51641 10.1016 4.83441 11.9996 4.83441C13.9086 4.83441 15.7386 5.52641 17.3356 6.79141" stroke="#878CA8" stroke-width="1.5" stroke-linecap="round" stroke-linejoin="round"/>
<path d="M19.4476 8.99091C20.1356 9.90491 20.7406 10.9599 21.2496 12.1369C19.2826 16.6939 15.8066 19.4389 11.9996 19.4389C11.1366 19.4389 10.2856 19.2989 9.4676 19.0259" stroke="#878CA8" stroke-width="1.5" stroke-linecap="round" stroke-linejoin="round"/>
<path d="M19.887 4.24969L4.113 20.0237" stroke="#878CA8" stroke-width="1.5" stroke-linecap="round" stroke-linejoin="round"/>
</svg>
