<svg width="48" height="48" viewBox="0 0 48 48" fill="none" xmlns="http://www.w3.org/2000/svg">
<g clip-path="url(#clip0_40_186)">
<path d="M25.9489 0.628357V4.55303C35.8016 5.53831 43.4907 13.9079 43.4907 24.0873C43.4907 34.2649 35.8016 42.6339 25.9489 43.6192V47.5462C37.954 46.548 47.3891 36.4337 47.3891 24.0873C47.3891 11.7391 37.954 1.62888 25.9489 0.628357Z" fill="#3D55CC"/>
<path d="M22.0511 43.6192C12.2025 42.6339 4.50928 34.2649 4.50928 24.0873C4.50928 13.9084 12.2025 5.53831 22.0511 4.55303V0.628357C10.0484 1.62888 0.610901 11.7391 0.610901 24.0873C0.610901 36.4337 10.0484 46.548 22.0511 47.5462V43.6192Z" fill="#3D55CC"/>
<path d="M12.4809 22.1326C13.4094 16.5863 18.206 12.3578 24 12.3578C29.7941 12.3578 34.5906 16.5863 35.5191 22.1326H39.4573C38.4983 14.4199 31.9529 8.44781 24 8.44781C16.0512 8.44781 9.50347 14.4199 8.54218 22.1326H12.4809Z" fill="#3D55CC"/>
<path d="M35.5191 26.042C34.5906 31.5859 29.794 35.8167 24 35.8167C18.2059 35.8167 13.4094 31.5859 12.4809 26.042H8.54272C9.50343 33.7547 16.0512 39.7267 24 39.7267C31.9529 39.7267 38.4983 33.7547 39.4578 26.042H35.5191Z" fill="#3D55CC"/>
<path d="M24 16.2678C19.6947 16.2678 16.2039 19.7691 16.2039 24.0873C16.2039 28.4055 19.6947 31.9067 24 31.9067C28.3071 31.9067 31.7962 28.4055 31.7962 24.0873C31.7962 19.7691 28.3071 16.2678 24 16.2678ZM24 27.9973C21.8471 27.9973 20.1016 26.2467 20.1016 24.0873C20.1016 21.9279 21.8471 20.1773 24 20.1773C26.1547 20.1773 27.8984 21.9279 27.8984 24.0873C27.8984 26.2467 26.1547 27.9973 24 27.9973Z" fill="#3D55CC"/>
</g>
<defs>
<clipPath id="clip0_40_186">
<rect width="48" height="48" fill="white"/>
</clipPath>
</defs>
</svg>
